PathFileType	4	(X/Y/Z)	C:/Users/Carlo/Dropbox/Carlos/SARAH/CongressoMarcha2025/WorkshopOpenSim/C3D/Caso01/Cal 01.c3d.trc
DataRate	CameraRate	NumFrames	NumMarkers	Units	OrigDataRate	OrigDataStartFrame	OrigNumFrames
100.000000	100.000000	4	70	mm	100.000000	22	178
Frame#	Time	LASI			RASI			LPSI			RPSI			LTHI			LKNE			LTIB			LANK			LHEE			LTOE			RTHI			RKNE			RTIB			RANK			RHEE			RTOE			PELO			PELA			PELL			PELP			LFEO			LFEA			LFEL			LFEP			LTIO			LTIA			LTIL			LTIP			LFOO			LFOA			LFOL			LFOP			LTOO			LTOA			LTOL			LTOP			RFEO			RFEA			RFEL			RFEP			RTIO			RTIA			RTIL			RTIP			RFOO			RFOA			RFOL			RFOP			RTOO			RTOA			RTOL			RTOP			LHipAngles			LKneeAngles			LAbsAnkleAngle			LAnkleAngles			RHipAngles			RKneeAngles			RAnkleAngles			RAbsAnkleAngle			LPelvisAngles			RPelvisAngles			LFootProgressAngles			RFootProgressAngles			LHJC			RHJC			LKJC			RKJC			LAJC			RAJC			
		X1	Y1	Z1	X2	Y2	Z2	X3	Y3	Z3	X4	Y4	Z4	X5	Y5	Z5	X6	Y6	Z6	X7	Y7	Z7	X8	Y8	Z8	X9	Y9	Z9	X10	Y10	Z10	X11	Y11	Z11	X12	Y12	Z12	X13	Y13	Z13	X14	Y14	Z14	X15	Y15	Z15	X16	Y16	Z16	X17	Y17	Z17	X18	Y18	Z18	X19	Y19	Z19	X20	Y20	Z20	X21	Y21	Z21	X22	Y22	Z22	X23	Y23	Z23	X24	Y24	Z24	X25	Y25	Z25	X26	Y26	Z26	X27	Y27	Z27	X28	Y28	Z28	X29	Y29	Z29	X30	Y30	Z30	X31	Y31	Z31	X32	Y32	Z32	X33	Y33	Z33	X34	Y34	Z34	X35	Y35	Z35	X36	Y36	Z36	X37	Y37	Z37	X38	Y38	Z38	X39	Y39	Z39	X40	Y40	Z40	X41	Y41	Z41	X42	Y42	Z42	X43	Y43	Z43	X44	Y44	Z44	X45	Y45	Z45	X46	Y46	Z46	X47	Y47	Z47	X48	Y48	Z48	X49	Y49	Z49	X50	Y50	Z50	X51	Y51	Z51	X52	Y52	Z52	X53	Y53	Z53	X54	Y54	Z54	X55	Y55	Z55	X56	Y56	Z56	X57	Y57	Z57	X58	Y58	Z58	X59	Y59	Z59	X60	Y60	Z60	X61	Y61	Z61	X62	Y62	Z62	X63	Y63	Z63	X64	Y64	Z64	X65	Y65	Z65	X66	Y66	Z66	X67	Y67	Z67	X68	Y68	Z68	X69	Y69	Z69	X70	Y70	Z70	

23	0.22	54.07417297363284	1047.046264648438	-311.7516479492189	73.89215850830081	1056.9130859375	-524.3079833984377	248.7387695312501	1063.330688476563	-340.1836853027345	263.820526123047	1064.313354492188	-451.3820800781252	116.8801269531251	749.4754028320315	-216.6353607177736	123.1917800903321	538.9273681640627	-252.0979156494142	156.3628387451172	302.6650390625001	-219.0791320800782	175.5393829345704	100.0107727050782	-223.6363067626954	238.4016723632814	56.16271591186526	-265.5904541015626	12.81022930145264	62.96204757690433	-247.7886962890626	128.6770324707032	816.8595581054692	-611.815368652344	117.6928710937501	537.5776367187502	-575.1560668945315	149.6596679687501	383.7186279296876	-604.320739746094	179.8427886962891	96.58584594726568	-598.8547973632815	246.1881256103517	58.917594909668	-553.5959472656252	21.7201042175293	62.75273513793948	-576.9401855468752	117.2235565185547	958.1300659179692	-417.4223632812502	-10.86482238769532	950.1410522460942	-429.7357177734377	105.267562866211	952.1775512695317	-289.1893615722657	108.7090377807618	1086.671264648438	-412.2493896484377	123.5251159667969	532.989929199219	-309.7922363281251	-300.8848571777345	520.4631347656252	-310.9551086425782	121.0849304199219	576.455749511719	112.5664367675782	111.1833877563477	955.1698608398442	-353.3109436035157	170.8175811767579	95.26961517333987	-268.6416015625001	-246.2592620849611	54.72286224365237	-220.6118774414064	214.5888214111329	139.2203674316407	148.5590515136719	125.7069320678712	512.7958984375002	-307.8937988281251	16.44147491455079	87.25141143798831	-240.7107086181642	21.16247558593751	305.3367309570314	-264.1805419921876	34.2947235107422	110.2667465209962	-23.25752258300782	235.0582580566407	80.66233825683597	-257.9620971679689	-56.43079376220706	89.44778442382815	-234.9602508544923	-54.85709762573245	162.1428833007813	-242.7835540771486	-50.47972106933597	97.1195907592774	-162.4758605957032	16.44146728515626	87.25140380859378	-240.7107086181642	113.3437118530274	532.7873535156252	-518.5244750976565	-315.299774169922	545.4656372070315	-550.3707275390627	80.53340148925784	496.6489868164065	-91.29190063476565	123.2637023925782	961.0903320312505	-481.5337219238284	169.8597412109376	91.70565032958987	-553.7020263671877	-242.7659912109376	46.50117111206056	-649.817077636719	78.38580322265628	46.98868560791017	-139.9697265625001	115.8776397705079	513.0112304687502	-520.1016845703127	16.8449878692627	81.72499847412112	-585.3817138671877	18.08706283569337	299.1101684570314	-561.6116333007815	-6.041994094848636	58.21433258056643	-369.1727905273439	234.3248901367189	78.00926208496097	-562.7642211914065	-55.64831161499026	82.96357727050784	-592.9208984375002	-55.23430633544925	155.4252929687501	-584.9975585937502	-63.27730941772464	75.1267013549805	-520.851257324219	16.84499740600587	81.72502136230472	-585.3817138671877	-8.346232414245609	-5.296495437622072	1.328897356987	0.5373895764350893	-6.264526367187504	4.4711971282959	0	0	7.410871982574466	1.431612125938134e-13	1.289353251457215	7.412771224975589	-2.145302772521974	0.9987125992774968	5.331566810607912	-0.2817785739898683	-8.124059677124027	8.604186058044437	2.912398241409348e-13	6.389947414398197	7.786642551422123	0	0	7.737967491149906	-2.299525260925294	5.484909534454347	3.789715051651003	2.299525260925294	-5.484909534454347	3.789715051651003	-6.16013336181641	-4.509905815124513	-91.72637176513675	-6.273906230926517	-5.936445713043215	-90.97882843017581	111.1834030151368	955.1698608398442	-353.3109436035157	123.2637176513672	961.0903320312505	-481.5337524414065	123.5251159667969	532.989929199219	-309.7922363281251	113.3437118530274	532.7873535156252	-518.5244750976565	170.8175811767579	95.26961517333987	-268.6416015625001	169.8597564697266	91.70565032958987	-553.7020263671877	
24	0.23	54.1894454956055	1047.067504882813	-311.9038696289064	73.93450927734378	1057.013061523438	-524.509460449219	248.7765960693361	1063.370727539063	-340.3819580078126	263.8535766601564	1064.383666992188	-451.571960449219	117.054069519043	749.529968261719	-216.7413330078126	123.2494125366212	539.0303344726565	-252.1430969238282	156.306869506836	302.6557922363282	-219.5535888671876	175.6272277832032	100.1205368041993	-223.6547241210939	238.3893432617189	56.13558197021487	-265.5862426757814	12.87020683288575	63.01294708251956	-247.7911834716798	128.7738189697266	816.955932617188	-611.9899902343752	117.9803543090821	537.6985473632815	-575.361511230469	149.9029693603516	383.8089599609376	-604.4600219726565	179.8952636718751	96.64549255371099	-598.8980712890627	246.1640472412111	58.89243316650393	-553.6140136718752	21.7646884918213	62.83001327514651	-576.986267089844	117.3063964843751	958.1926879882817	-417.6518859863284	-10.78610229492188	950.2028808593755	-429.921813964844	105.3969726562501	952.1939086914067	-289.4167480468751	108.7885208129883	1086.731567382813	-412.4299621582034	123.5205307006837	533.065368652344	-309.8348999023439	-300.8751220703126	520.6950683593752	-310.5503234863282	121.5358581542969	576.7305908203127	112.4855651855469	111.2895278930665	955.2092895507817	-353.5393676757814	170.9669036865235	95.38154602050784	-268.6666564941407	-246.1354217529298	54.63176727294925	-221.1915130615236	214.1664886474611	139.3102722167969	148.5776977539063	125.7095336914063	512.872253417969	-307.9355773925782	16.58772468566895	87.41732025146487	-240.7372894287111	21.38739585876466	305.5022583007814	-264.1948547363282	34.44774627685548	110.4140014648438	-23.28266906738282	235.2022399902345	80.75052642822268	-257.987518310547	-56.28378677368167	89.63959503173831	-234.9872131347657	-54.68390655517581	162.3345642089844	-242.8063812255861	-50.33043289184573	97.30512237548834	-162.5023498535157	16.58771133422852	87.4173278808594	-240.7373199462892	113.6552505493165	532.908142089844	-518.7280883789065	-314.9649047851564	545.3187255859377	-550.4121704101565	81.02960205078128	496.772888183594	-91.52447509765628	123.3232574462891	961.1760253906255	-481.7644348144534	169.8910675048829	91.78574371337893	-553.7478027343752	-242.7190399169923	46.82688522338869	-650.011169433594	78.22486114501956	47.25692367553712	-140.0455322265626	116.176628112793	513.1299438476565	-520.2982177734377	16.87607383728028	81.87039947509768	-585.4468383789065	18.22259521484376	299.262908935547	-561.7495117187502	-6.054731369018558	58.44367980957034	-369.2333984375001	234.3507537841798	78.05426788330081	-562.7957153320315	-55.61548614501956	83.14241790771487	-592.9971923828127	-55.16666412353518	155.6065979003907	-585.098083496094	-63.25909042358401	75.33345794677737	-520.9260253906252	16.87608337402344	81.87037658691409	-585.4468383789065	-8.394343376159672	-5.336819648742678	1.343725323677063	0.5553218722343447	-6.122539997100834	4.506861686706545	0	0	7.451117515563968	4.517394759043921e-13	1.209745407104493	7.452789783477787	-2.125341415405274	1.000378251075745	5.296609401702883	-0.2554721236228944	-8.171231269836429	8.536214828491214	2.528420723658943e-13	6.405138015747074	7.778399467468265	0	0	7.729561328887943	-2.321279764175416	5.465599536895754	3.791264772415163	2.321279764175416	-5.465599536895754	3.791264772415163	-6.156880855560306	-4.509607315063478	-91.74673461914065	-6.254750251770023	-5.945277690887453	-91.00527954101565	111.2895126342774	955.2092895507817	-353.5393676757814	123.3232803344727	961.1759643554692	-481.7644042968752	123.5205307006837	533.065368652344	-309.834930419922	113.6552505493165	532.9082031250002	-518.7280883789065	170.9668884277344	95.38155364990237	-268.6666564941407	169.8910675048829	91.78574371337893	-553.7478027343752	
25	0.24	54.30443191528323	1047.078247070313	-312.0270385742189	74.09836578369143	1057.111206054688	-524.6926879882815	248.8370361328126	1063.425659179688	-340.5708923339845	263.9304199218751	1064.476318359375	-451.7365722656252	117.2457962036133	749.6204833984377	-216.8772277832032	123.3841171264649	539.1779785156252	-252.2734680175782	156.3525848388672	302.7431640625001	-219.5821685791017	175.7105407714844	100.1870498657227	-223.6522369384767	238.3993225097657	56.12019348144534	-265.5529174804689	12.90968704223634	63.08015823364261	-247.8062286376954	128.9616088867188	817.0356445312505	-612.1580200195315	118.1142883300782	538.059753417969	-575.4617919921877	150.1472167968751	383.8658447265626	-604.5462036132815	179.9739074707032	96.68281555175787	-598.9608154296877	246.2257232666017	58.87942886352542	-553.5969848632815	21.82406616210938	62.86768341064456	-577.0186157226565	117.4600219726563	958.255004882813	-417.8298950195315	-10.62870788574219	950.2503051757817	-430.1294250488284	105.5249328613282	952.2055053710942	-289.5995178222657	108.9214477539063	1086.790649414063	-412.5606994628909	123.6186752319337	533.2036132812502	-309.9644775390626	-300.682586669922	520.903259277344	-310.4158325195314	121.9019775390626	576.9275512695315	112.2538757324219	111.4303131103516	955.2462768554692	-353.7197875976564	171.1009979248047	95.44050598144534	-268.6685791015626	-246.1403961181642	54.6204643249512	-221.6401214599611	213.8394317626954	139.4491119384766	148.7101135253907	125.8088684082032	513.011169433594	-308.0596313476564	16.71344566345216	87.53619384765628	-240.7685089111329	21.59557342529298	305.6153564453126	-264.2627563476564	34.5384979248047	110.5640563964844	-23.31431579589844	235.3290252685548	80.78845214843753	-257.9741821289064	-56.15840911865237	89.78545379638675	-235.0332794189454	-54.53102493286136	162.4785156250001	-242.8647003173829	-50.21669769287112	97.46141815185553	-162.5485534667969	16.71345520019532	87.53620147705081	-240.768524169922	113.7691268920899	533.2771606445315	-518.8292236328127	-314.553680419922	545.7471923828127	-550.6394042968752	81.01399993896487	497.2243652343752	-91.9157409667969	123.4897384643555	961.2636718750005	-481.9400024414065	169.8782806396485	91.82144165039065	-553.8310546875002	-242.8677520751954	47.06430816650392	-650.9843750000002	77.30657196044925	47.24510574340822	-140.0138854980469	116.2830657958985	513.497741699219	-520.3974609375002	16.86813926696778	81.94270324707034	-585.5649414062502	18.25519752502442	299.3316650390626	-561.8375244140627	-6.114761352539066	58.49115753173831	-369.3597106933595	234.3370513916017	78.0777282714844	-562.8669433593752	-55.62149810791018	83.23105621337893	-593.1309204101565	-55.15911865234378	155.6940307617188	-585.2217407226565	-63.2824516296387	75.41385650634768	-521.0625610351565	16.86814117431641	81.94270324707034	-585.5649414062502	-8.425192832946781	-5.385068893432619	1.35371994972229	0.5452039837837221	-6.022648811340336	4.515982627868654	0	0	7.47543287277222	-8.509711761205826e-14	1.154620885848999	7.476971149444584	-2.095036268234254	0.991124272346497	5.311453342437746	-0.2583679258823396	-8.267070770263675	8.522480964660648	-4.481645225285285e-14	6.506768703460697	7.770785808563236	0	0	7.720406055450443	-2.342323064804078	5.478909015655519	3.800548553466799	2.342323064804078	-5.478909015655519	3.800548553466799	-6.166456222534183	-4.497934818267824	-91.76792907714847	-6.262854099273685	-5.957663059234621	-91.01819610595706	111.4303131103516	955.2462768554692	-353.7197570800782	123.4897384643555	961.263793945313	-481.9400329589846	123.6186752319337	533.2036743164065	-309.9644775390626	113.7691268920899	533.2771606445315	-518.8292236328127	171.1009826660157	95.44050598144534	-268.6685791015626	169.8782958984376	91.82144927978518	-553.8310546875002	
26	0.25	54.32742691040042	1047.058837890625	-312.2123413085939	74.1479187011719	1057.099853515625	-524.8797607421877	248.913543701172	1063.52587890625	-340.723114013672	264.002655029297	1064.581298828125	-451.8624572753909	117.3498153686524	749.6270141601565	-216.9917602539064	123.5096664428712	539.248962402344	-252.4285583496095	156.3629302978516	302.7848205566407	-219.7707672119142	175.6903991699219	100.2239379882813	-223.6732330322267	238.4292907714845	56.13562011718753	-265.5649414062501	12.85631370544434	63.12332534790042	-247.8455963134767	129.1461791992188	817.0266113281255	-612.2915039062502	118.402572631836	537.7937622070315	-575.5654907226565	150.3179168701172	383.8399047851564	-604.6164550781252	180.0043640136719	96.64331817626959	-598.9739990234377	246.2474822998048	58.86725234985354	-553.621276855469	21.88216400146485	62.84709167480472	-577.0279541015627	117.5523910522462	958.2715454101567	-418.0062561035159	-10.52965545654297	950.1899414062505	-430.3250122070315	105.6015319824219	952.2172851562505	-289.777557373047	108.9360504150391	1086.802124023438	-412.7407531738284	123.7461318969727	533.270935058594	-310.1191711425782	-300.5045776367189	520.9263305664065	-310.5788879394532	122.0157699584962	577.0169067382815	112.0473327636719	111.5147857666016	955.2604980468755	-353.896942138672	171.1083679199219	95.46833038330081	-268.6914367675782	-246.2099609375001	54.74847030639651	-221.9144287109376	213.5955963134767	139.5650024414063	148.7425231933594	125.9305877685547	513.0784301757815	-308.2084350585939	16.71604728698731	87.58435821533206	-240.811981201172	21.62262344360352	305.6584777832032	-264.3481445312501	34.51212310791017	110.6530075073243	-23.35974121093751	235.3334350585939	80.81213378906253	-257.9849853515626	-56.15641403198245	89.84177398681643	-235.0876617431642	-54.52088928222659	162.5331268310547	-242.9330596923829	-50.22438812255862	97.53131866455084	-162.6035919189454	16.71604537963868	87.58435821533206	-240.8119964599611	114.0485076904297	533.0220947265627	-518.9326782226565	-314.5352172851564	545.3144531250002	-550.8475341796877	81.20616149902347	497.0298461914065	-91.75634765625003	123.5899887084962	961.2827758789067	-482.1154785156252	169.9096221923829	91.79448699951175	-553.842712402344	-242.6092987060548	47.24708175659181	-650.8989257812502	77.40326690673831	47.36067199707033	-140.2674560546876	116.5528106689454	513.2413330078127	-520.497741699219	16.89781570434571	81.90608978271487	-585.5655517578127	18.28499031066895	299.3016052246095	-561.8987426757815	-6.073352813720707	58.51455688476565	-369.3526611328126	234.3679351806642	78.04853820800784	-562.8781738281252	-55.59223556518558	83.19193267822268	-593.1279907226565	-55.12982177734378	155.6571044921876	-585.2390136718752	-63.24929046630862	75.39473724365237	-521.0570068359377	16.89780044555665	81.90605926513675	-585.5655517578127	-8.430180549621586	-5.391425132751467	1.380884528160096	0.5324974060058596	-5.990859031677248	4.493823051452638	0	0	7.465191841125492	-2.44950137647318e-13	1.127396225929261	7.466650009155277	-2.082382917404176	0.9879470467567448	5.320564746856691	-0.2588560283184053	-8.256319999694828	8.469864845275882	3.689368960075464e-13	6.508770465850834	7.742267131805423	0	0	7.692066192626957	-2.34066653251648	5.487483978271486	3.835201263427736	2.34066653251648	-5.487483978271486	3.835201263427736	-6.177425861358646	-4.489365100860597	-91.77431488037112	-6.246780872344974	-5.95484781265259	-91.01622009277347	111.5147857666016	955.260375976563	-353.8969726562501	123.5899887084962	961.2826538085942	-482.1155395507815	123.7461318969727	533.2708740234377	-310.1191711425782	114.0485076904297	533.0220947265627	-518.9326782226565	171.1083679199219	95.46833038330081	-268.6914367675782	169.9096221923829	91.79449462890628	-553.8426513671877	
